<?xml version="1.0" encoding="UTF-8" ?>
<!DOCTYPE svg PUBLIC "-//W3C//DTD SVG 1.1//EN" "http://www.w3.org/Graphics/SVG/1.1/DTD/svg11.dtd">
<svg width="250pt" height="250pt" viewBox="0 0 250 250" version="1.1" xmlns="http://www.w3.org/2000/svg">
<g id="#fffcd6ff">
<path fill="#fffcd6" opacity="1.00" d=" M 73.92 10.95 C 97.48 0.16 124.48 -2.32 149.83 2.59 C 179.29 8.56 206.36 25.58 224.58 49.47 C 240.61 70.38 249.72 96.46 250.00 122.82 L 250.00 126.93 C 249.79 157.44 237.55 187.47 216.87 209.81 C 195.11 233.52 163.97 248.49 131.75 250.00 L 118.12 250.00 C 92.33 248.82 67.13 239.08 47.01 222.95 C 18.29 200.01 0.29 164.04 0.00 127.18 L 0.00 123.59 C 0.20 104.23 4.81 84.90 13.84 67.75 C 26.62 42.70 48.22 22.35 73.92 10.95 M 129.72 12.69 C 120.37 19.09 110.91 25.67 103.70 34.53 C 102.08 36.65 100.31 39.23 100.84 42.04 C 101.03 44.53 103.80 45.18 105.58 46.30 C 109.00 47.98 112.23 50.97 112.37 55.05 C 113.85 64.20 106.11 74.79 96.34 73.62 C 94.53 71.19 93.93 68.08 92.26 65.56 C 89.76 61.47 86.20 57.03 80.96 56.94 C 76.49 56.38 73.11 59.98 68.92 60.65 C 65.01 60.89 62.27 57.51 60.50 54.46 C 55.61 46.01 53.39 36.33 51.61 26.83 C 49.40 40.24 46.79 53.59 44.72 67.02 C 44.13 71.00 44.29 75.08 44.94 79.05 C 45.37 81.66 46.91 84.67 49.82 85.05 C 54.19 85.21 58.66 81.53 62.91 84.07 C 67.57 86.95 72.37 91.25 73.10 96.97 C 72.54 102.03 69.59 106.39 67.06 110.66 C 61.39 108.85 55.49 105.42 49.40 107.51 C 42.31 109.85 43.48 120.80 35.98 122.33 C 23.87 123.66 14.50 114.69 4.01 110.36 C 13.69 122.28 20.58 136.48 32.09 146.88 C 35.19 149.73 39.49 152.76 43.88 151.00 C 48.91 148.92 51.37 143.71 54.88 139.89 C 56.87 137.30 60.52 138.31 63.22 138.94 C 69.33 140.72 71.73 147.41 73.49 152.88 C 68.15 155.65 62.04 158.76 59.99 164.88 C 58.25 169.17 60.01 173.70 60.82 177.98 C 61.22 181.61 58.74 184.79 55.94 186.79 C 47.55 192.87 37.22 195.12 27.39 197.74 C 40.91 199.97 54.46 202.21 68.11 203.40 C 73.51 203.46 80.23 203.59 83.83 198.81 C 87.74 193.03 81.75 185.61 85.73 179.86 C 87.97 176.49 92.36 176.14 96.04 176.00 C 100.37 175.65 104.25 178.05 107.41 180.74 C 104.94 186.48 101.88 193.18 104.76 199.36 C 107.00 204.92 113.05 207.06 117.26 210.76 C 120.50 214.84 118.08 220.36 116.74 224.72 C 113.75 232.50 109.79 239.95 104.89 246.70 C 118.29 235.82 134.41 227.91 145.12 214.00 C 146.91 211.43 149.75 208.35 148.05 205.03 C 145.28 201.26 139.49 201.01 137.29 196.70 C 135.75 192.87 135.92 188.38 137.49 184.59 C 139.86 179.40 145.57 176.87 150.90 175.95 C 153.87 181.89 156.89 188.71 163.06 191.93 C 167.36 194.17 171.97 192.00 175.79 189.86 C 179.16 188.03 183.19 189.92 185.09 192.97 C 190.94 201.59 193.76 211.77 196.37 221.74 C 198.40 212.90 199.63 203.92 201.06 194.98 C 202.29 186.32 203.63 177.46 202.00 168.77 C 201.64 167.20 200.82 164.97 198.86 165.09 C 194.52 165.37 190.04 168.27 185.75 166.24 C 181.27 164.13 176.83 161.08 174.57 156.53 C 172.56 150.98 177.56 146.45 180.07 142.03 C 186.29 143.26 192.62 145.45 199.02 144.19 C 201.04 143.90 203.02 142.88 204.07 141.07 C 206.40 137.89 206.07 133.51 208.45 130.40 C 211.33 128.22 215.31 128.92 218.61 129.55 C 228.48 132.30 237.12 138.01 245.97 142.99 C 234.75 130.03 228.34 113.12 214.74 102.21 C 210.42 98.64 203.82 99.13 199.64 102.64 C 197.13 105.13 196.88 108.94 194.80 111.70 C 192.47 113.79 188.93 113.25 186.11 112.70 C 180.70 111.30 179.03 105.34 176.55 101.04 C 181.87 96.51 189.54 94.17 192.70 87.50 C 194.46 81.13 189.82 75.33 190.03 69.00 C 190.23 66.64 192.31 65.12 194.24 64.12 C 203.46 59.19 213.97 57.87 223.89 54.97 C 213.67 53.22 203.40 51.87 193.15 50.37 C 184.61 49.37 175.72 48.08 167.34 50.64 C 165.32 51.12 163.27 52.71 163.71 55.04 C 164.45 60.43 166.24 66.32 163.53 71.46 C 162.09 74.70 158.04 75.32 154.89 75.01 C 150.32 74.32 146.34 71.67 142.62 69.07 C 144.23 62.85 145.82 56.08 143.37 49.85 C 141.64 44.62 137.05 41.26 133.12 37.73 C 130.03 34.91 129.55 30.30 130.74 26.47 C 133.21 17.87 138.82 10.69 143.85 3.45 C 139.00 6.31 134.40 9.57 129.72 12.69 Z" />
<path fill="#fffcd6" opacity="1.00" d=" M 114.56 74.84 C 125.35 72.71 136.92 74.11 146.69 79.27 C 159.82 86.01 169.62 98.63 173.44 112.84 C 177.23 127.85 173.70 144.62 163.72 156.54 C 149.26 174.66 121.42 179.99 101.16 168.86 C 88.37 162.13 78.73 149.89 74.80 136.02 C 71.27 123.46 73.66 109.56 80.63 98.60 C 88.08 86.51 100.65 77.70 114.56 74.84 M 118.54 79.71 C 100.42 82.10 84.40 96.10 79.94 113.89 C 76.36 127.62 80.09 142.93 89.48 153.56 C 97.93 163.06 110.27 169.32 123.08 169.51 C 138.70 170.03 154.56 162.26 163.09 149.06 C 167.61 142.24 169.95 134.10 170.07 125.95 C 170.58 112.84 164.64 99.79 154.81 91.19 C 145.06 82.49 131.58 77.84 118.54 79.71 Z" />
</g>
<g id="#000000ff">
<path fill="#000000" opacity="1.00" d=" M 129.72 12.69 C 134.40 9.57 139.00 6.31 143.85 3.45 C 138.82 10.69 133.21 17.87 130.74 26.47 C 129.55 30.30 130.03 34.91 133.12 37.73 C 137.05 41.26 141.64 44.62 143.37 49.85 C 145.82 56.08 144.23 62.85 142.62 69.07 C 146.34 71.67 150.32 74.32 154.89 75.01 C 158.04 75.32 162.09 74.70 163.53 71.46 C 166.24 66.32 164.45 60.43 163.71 55.04 C 163.27 52.71 165.32 51.12 167.34 50.64 C 175.72 48.08 184.61 49.37 193.15 50.37 C 203.40 51.87 213.67 53.22 223.89 54.97 C 213.97 57.87 203.46 59.19 194.24 64.12 C 192.31 65.12 190.23 66.64 190.03 69.00 C 189.82 75.33 194.46 81.13 192.70 87.50 C 189.54 94.17 181.87 96.51 176.55 101.04 C 179.03 105.34 180.70 111.30 186.11 112.70 C 188.93 113.25 192.47 113.79 194.80 111.70 C 196.88 108.94 197.13 105.13 199.64 102.64 C 203.82 99.13 210.42 98.64 214.74 102.21 C 228.34 113.12 234.75 130.03 245.97 142.99 C 237.12 138.01 228.48 132.30 218.61 129.55 C 215.31 128.92 211.33 128.22 208.45 130.40 C 206.07 133.51 206.40 137.89 204.07 141.07 C 203.02 142.88 201.04 143.90 199.02 144.19 C 192.62 145.45 186.29 143.26 180.07 142.03 C 177.56 146.45 172.56 150.98 174.57 156.53 C 176.83 161.08 181.27 164.13 185.75 166.24 C 190.04 168.27 194.52 165.37 198.86 165.09 C 200.82 164.97 201.64 167.20 202.00 168.77 C 203.63 177.46 202.29 186.32 201.06 194.98 C 199.63 203.92 198.40 212.90 196.37 221.74 C 193.76 211.77 190.94 201.59 185.09 192.97 C 183.19 189.92 179.16 188.03 175.79 189.86 C 171.97 192.00 167.36 194.17 163.06 191.93 C 156.89 188.71 153.87 181.89 150.90 175.95 C 145.57 176.87 139.86 179.40 137.49 184.59 C 135.92 188.38 135.75 192.87 137.29 196.70 C 139.49 201.01 145.28 201.26 148.05 205.03 C 149.75 208.35 146.91 211.43 145.12 214.00 C 134.41 227.91 118.29 235.82 104.89 246.70 C 109.79 239.95 113.75 232.50 116.74 224.72 C 118.08 220.36 120.50 214.84 117.26 210.76 C 113.05 207.06 107.00 204.92 104.76 199.36 C 101.88 193.18 104.94 186.48 107.41 180.74 C 104.25 178.05 100.37 175.65 96.04 176.00 C 92.36 176.14 87.97 176.49 85.73 179.86 C 81.75 185.61 87.74 193.03 83.83 198.81 C 80.23 203.59 73.51 203.46 68.11 203.40 C 54.46 202.21 40.91 199.97 27.39 197.74 C 37.22 195.12 47.55 192.87 55.94 186.79 C 58.74 184.79 61.22 181.61 60.82 177.98 C 60.01 173.70 58.25 169.17 59.99 164.88 C 62.04 158.76 68.15 155.65 73.49 152.88 C 71.73 147.41 69.33 140.72 63.22 138.94 C 60.52 138.31 56.87 137.30 54.88 139.89 C 51.37 143.71 48.91 148.92 43.88 151.00 C 39.49 152.76 35.19 149.73 32.09 146.88 C 20.58 136.48 13.69 122.28 4.01 110.36 C 14.50 114.69 23.87 123.66 35.98 122.33 C 43.48 120.80 42.31 109.85 49.40 107.51 C 55.49 105.42 61.39 108.85 67.06 110.66 C 69.59 106.39 72.54 102.03 73.10 96.97 C 72.37 91.25 67.57 86.95 62.91 84.07 C 58.66 81.53 54.19 85.21 49.82 85.05 C 46.91 84.67 45.37 81.66 44.94 79.05 C 44.29 75.08 44.13 71.00 44.72 67.02 C 46.79 53.59 49.40 40.24 51.61 26.83 C 53.39 36.33 55.61 46.01 60.50 54.46 C 62.27 57.51 65.01 60.89 68.92 60.65 C 73.11 59.98 76.49 56.38 80.96 56.94 C 86.20 57.03 89.76 61.47 92.26 65.56 C 93.93 68.08 94.53 71.19 96.34 73.62 C 106.11 74.79 113.85 64.20 112.37 55.05 C 112.23 50.97 109.00 47.98 105.58 46.30 C 103.80 45.18 101.03 44.53 100.84 42.04 C 100.31 39.23 102.08 36.65 103.70 34.53 C 110.91 25.67 120.37 19.09 129.72 12.69 M 114.56 74.84 C 100.65 77.70 88.08 86.51 80.63 98.60 C 73.66 109.56 71.27 123.46 74.80 136.02 C 78.73 149.89 88.37 162.13 101.16 168.86 C 121.42 179.99 149.26 174.66 163.72 156.54 C 173.70 144.62 177.23 127.85 173.44 112.84 C 169.62 98.63 159.82 86.01 146.69 79.27 C 136.92 74.11 125.35 72.71 114.56 74.84 Z" />
<path fill="#000000" opacity="1.00" d=" M 118.54 79.71 C 131.58 77.84 145.06 82.49 154.81 91.19 C 164.64 99.79 170.58 112.84 170.07 125.95 C 169.95 134.10 167.61 142.24 163.09 149.06 C 154.56 162.26 138.70 170.03 123.08 169.51 C 110.27 169.32 97.93 163.06 89.48 153.56 C 80.09 142.93 76.36 127.62 79.94 113.89 C 84.40 96.10 100.42 82.10 118.54 79.71 Z" />
</g>
</svg>
