<?xml version="1.0" standalone="no"?>
<!DOCTYPE svg PUBLIC "-//W3C//DTD SVG 20010904//EN"
 "http://www.w3.org/TR/2001/REC-SVG-20010904/DTD/svg10.dtd">
<svg version="1.0" xmlns="http://www.w3.org/2000/svg"
 width="1000.000000pt" height="1000.000000pt" viewBox="0 0 1000.000000 1000.000000"
 preserveAspectRatio="xMidYMid meet">
<metadata>
Created by potrace 1.11, written by Peter Selinger 2001-2013
</metadata>
<g transform="translate(0.000000,1000.000000) scale(0.100000,-0.100000)"
fill="#000000" stroke="none">
<path d="M3555 6639 c-282 -50 -424 -113 -573 -253 -184 -174 -288 -433 -308
-773 l-7 -113 200 0 c227 0 213 -5 213 83 0 61 22 189 46 267 64 211 205 349
415 406 84 22 309 23 390 1 124 -34 230 -103 305 -199 81 -104 113 -196 121
-348 9 -165 -30 -287 -134 -420 -85 -108 -201 -191 -583 -416 -346 -203 -480
-290 -585 -378 -191 -160 -313 -349 -387 -596 -34 -117 -65 -293 -70 -400 l-3
-75 1098 -3 1097 -2 0 190 0 190 -876 0 -876 0 6 33 c10 53 73 176 127 248
118 159 261 263 669 485 320 174 548 324 671 441 217 208 318 474 288 758 -22
205 -81 360 -199 519 -70 95 -153 173 -235 221 -64 38 -204 93 -266 106 -180
36 -429 48 -544 28z"/>
<path d="M6123 6630 c-141 -15 -265 -54 -369 -116 -241 -145 -399 -372 -500
-718 -74 -255 -104 -499 -105 -837 0 -216 11 -359 41 -537 35 -201 65 -306
137 -467 184 -413 485 -615 916 -615 189 0 316 29 468 106 432 222 670 839
646 1683 -12 428 -73 720 -204 973 -148 286 -387 466 -683 513 -120 19 -251
25 -347 15z m301 -376 c102 -26 166 -63 236 -133 93 -94 139 -190 194 -407
105 -410 97 -1152 -15 -1523 -93 -307 -319 -491 -600 -491 -153 0 -267 46
-370 149 -186 186 -273 493 -286 1001 -15 616 84 1053 284 1256 75 77 158 126
249 148 81 20 232 20 308 0z"/>
<path d="M8455 5881 c-11 -5 -29 -19 -40 -31 -19 -21 -20 -38 -23 -286 l-3
-264 -250 0 c-346 0 -339 4 -339 -218 0 -235 -4 -232 345 -232 l245 0 0 -250
c0 -344 -3 -340 226 -340 120 0 141 3 169 20 18 11 37 28 41 38 4 9 10 133 12
275 l4 257 245 0 c345 0 343 -1 343 225 0 228 4 225 -340 225 l-250 0 0 253
c0 234 -1 254 -20 285 -11 18 -32 37 -46 42 -30 12 -291 12 -319 1z"/>
<path d="M622 5280 c-18 -11 -37 -32 -42 -46 -6 -14 -10 -86 -10 -160 0 -154
10 -187 65 -210 51 -21 1449 -21 1500 0 55 23 65 56 65 210 0 74 -4 146 -10
160 -5 14 -24 35 -42 46 -32 19 -51 20 -763 20 -712 0 -731 -1 -763 -20z"/>
</g>
</svg>
