<?xml version="1.0" encoding="UTF-8" standalone="no"?>
<!-- Created with Inkscape (http://www.inkscape.org/) -->

<svg
   xmlns:dc="http://purl.org/dc/elements/1.1/"
   xmlns:cc="http://creativecommons.org/ns#"
   xmlns:rdf="http://www.w3.org/1999/02/22-rdf-syntax-ns#"
   xmlns:svg="http://www.w3.org/2000/svg"
   xmlns="http://www.w3.org/2000/svg"
   xmlns:sodipodi="http://sodipodi.sourceforge.net/DTD/sodipodi-0.dtd"
   xmlns:inkscape="http://www.inkscape.org/namespaces/inkscape"
   width="250"
   height="250"
   id="svg3247"
   version="1.1"
   inkscape:version="0.48.5 r10040"
   sodipodi:docname="black_green_mana.svg"
   inkscape:export-filename="D:\WAMP\www\mtg\img\svg\black_green_mana.png"
   inkscape:export-xdpi="90"
   inkscape:export-ydpi="90">
  <defs
     id="defs3249" />
  <sodipodi:namedview
     id="base"
     pagecolor="#ffffff"
     bordercolor="#666666"
     borderopacity="1.0"
     inkscape:pageopacity="0.0"
     inkscape:pageshadow="2"
     inkscape:zoom="7.8100781"
     inkscape:cx="50.00001"
     inkscape:cy="213.89031"
     inkscape:document-units="px"
     inkscape:current-layer="layer1"
     showgrid="false"
     fit-margin-top="0"
     fit-margin-left="0"
     fit-margin-right="0"
     fit-margin-bottom="0"
     inkscape:window-width="1680"
     inkscape:window-height="998"
     inkscape:window-x="-8"
     inkscape:window-y="-8"
     inkscape:window-maximized="1" />
  <metadata
     id="metadata3252">
    <rdf:RDF>
      <cc:Work
         rdf:about="">
        <dc:format>image/svg+xml</dc:format>
        <dc:type
           rdf:resource="http://purl.org/dc/dcmitype/StillImage" />
        <dc:title></dc:title>
      </cc:Work>
    </rdf:RDF>
  </metadata>
  <g
     inkscape:label="Layer 1"
     inkscape:groupmode="layer"
     id="layer1"
     transform="translate(-324.2857,-178.07597)">
    <g
       id="g217"
       transform="matrix(2.5,0,0,2.500025,1374.2857,-84.429155)">
      <path
         d="m -334.651,119.637 c 9.053,9.051 14.651,21.551 14.651,35.36 0,27.616 -22.387,50.003 -50,50.003 -13.807,0 -26.305,-5.596 -35.354,-14.646"
         id="path219"
         inkscape:connector-curvature="0"
         style="fill:#a3c095" />
      <path
         d="m -405.354,190.354 c -9.05,-9.047 -14.646,-21.549 -14.646,-35.356 0,-27.613 22.387,-49.997 50,-49.997 13.802,0 26.301,5.594 35.349,14.637"
         id="path221"
         inkscape:connector-curvature="0"
         style="fill:#bab1ab" />
    </g>
    <path
       d="m 457.42821,248.35167 c 0,6.75257 -2.455,11.35762 -7.3675,13.81264 -1.435,0.71751 -5.935,1.69502 -13.51,2.91503 -4.9075,0.82251 -7.3625,2.72003 -7.3625,5.67756 v 12.43262 c 0,0.52251 0.155,2.10502 0.46,4.76505 l 0.4625,4.91255 c 0,1.53251 -0.36,4.04254 -1.0775,7.52007 -1.94,0.40751 -4.195,0.87001 -6.75,1.38752 -0.82,-3.07253 -1.2275,-5.17255 -1.2275,-6.30007 0,-0.5075 0.125,-1.28001 0.38,-2.30252 0.255,-1.02001 0.3825,-1.79002 0.3825,-2.30252 0,-0.71001 -0.6325,-2.71003 -1.905,-5.98256 h -2.3825 c -0.3125,0.5075 -0.4175,1.17251 -0.3175,1.98752 0.41,1.74002 0.5625,3.22253 0.465,4.45254 -1.7425,1.22751 -4.1425,2.86503 -7.215,4.91255 -0.72,-0.205 -0.975,-0.3075 -0.77,-0.3075 v -10.89761 c -0.205,-0.50501 -0.715,-0.71251 -1.535,-0.61251 h -1.8425 l -1.84,14.42765 c -1.43,0.1025 -3.1725,0.1025 -5.215,0 -0.7175,-3.37504 -2,-8.38509 -3.8375,-15.03765 h -1.23 c -1.125,3.58253 -1.7375,5.52505 -1.8425,5.83256 0,0.4075 0.13,1.20001 0.3875,2.37752 0.2525,1.17751 0.38,1.96752 0.38,2.37752 0,0.30251 -0.1025,1.07501 -0.31,2.30253 l -0.46,3.68503 c -0.2075,0.20001 -0.46,0.30251 -0.765,0.30251 -3.0725,0 -5.12,-0.76501 -6.1375,-2.29753 -1.0275,-1.53501 -1.4375,-3.69003 -1.2325,-6.45006 l 1.2325,-18.41519 c 0,-0.3025 0.095,-0.7125 0.3025,-1.23001 0.205,-0.5075 0.3075,-0.87001 0.3075,-1.07001 0,-0.82001 -0.87,-2.46002 -2.6075,-4.91755 -0.3075,-0.0975 -1.895,-0.46 -4.76,-1.07501 -1.7375,-0.4075 -5.1675,-1.12501 -10.28,-2.14502 -7.06,-1.32501 -10.5925,-7.00757 -10.5925,-17.03767 0,-14.94265 6.14,-27.37027 18.4175,-37.29537 0.51,2.76252 1.3825,6.44006 2.61,11.04511 0.9225,0.215 2.92,0.675 5.99,1.38751 0.6175,0.2025 3.735,1.33251 9.3625,3.38003 -2.865,-1.73751 -6.6,-4.55004 -11.2,-8.44258 -1.7425,-2.04502 -2.615,-5.47255 -2.615,-10.2826 0,-1.12501 1.945,-2.45253 5.8375,-3.99754 3.4775,-1.42752 6.085,-2.24252 7.8275,-2.44753 5.5225,-0.715 9.7675,-1.08001 12.74,-1.08001 12.7875,0 23.1225,3.28004 31,9.8301 -2.555,2.97003 -6.9575,6.13256 -13.1975,9.5176 2.455,0.1025 6.0375,-0.87001 10.7475,-2.92003 4.705,-2.04002 6.7,-3.06753 5.985,-3.06753 0.8175,0 2.455,1.63501 4.9125,4.90755 1.8375,2.45502 3.3225,4.66254 4.45,6.60256 3.275,5.83256 5.475,12.13012 6.605,18.88269 0,2.35252 0.0475,4.04004 0.1525,5.06005 v 1.22251 h -0.025 z m -58.79,2.77003 c 0,-4.40254 -1.9175,-8.57259 -5.755,-12.51512 -3.8375,-3.94004 -7.96,-5.90756 -12.3575,-5.90756 -3.8875,0 -7.3125,1.65001 -10.2825,4.94505 -2.9675,3.29753 -4.4475,6.95507 -4.4475,10.97261 0,3.50253 1.685,5.77505 5.065,6.80006 2.15,0.62001 5.1625,0.98001 9.0525,1.08501 h 8.44 c 6.855,0.09 10.285,-1.70501 10.285,-5.38005 z m 16.7325,19.03019 v -4.75255 c -0.715,-1.33251 -1.4325,-2.71752 -2.145,-4.15004 -0.615,-2.04252 -1.7425,-4.90755 -3.38,-8.59758 l -1.69,17.96518 c 0,1.43501 -0.3025,2.14752 -0.92,2.14752 -0.4075,0 -0.7175,-0.1 -0.9225,-0.30501 -0.715,-10.8476 -1.0725,-15.56015 -1.0725,-14.11764 v -5.37005 c -0.2075,-0.315 -0.4625,-0.47001 -0.77,-0.47001 -3.4775,3.59254 -5.215,9.3701 -5.215,17.34518 0,4.40254 0.405,7.11257 1.2225,8.14258 0.82,-0.2075 1.7375,-0.56501 2.765,-1.07751 0.4075,-0.2075 1.585,-0.3075 3.53,-0.3075 1.9375,0 4.2975,0.615 7.0575,1.83751 1.0275,-0.003 1.54,-2.76252 1.54,-8.29008 z m 34.69,-21.39021 c 0,-4.11504 -1.535,-7.79508 -4.6075,-11.04511 -3.0725,-3.24254 -6.6,-4.86255 -10.585,-4.86255 -4.3,0 -8.32,1.96752 -12.05,5.90756 -3.7375,3.93504 -5.605,8.05758 -5.605,12.35512 0,3.58254 1.7425,5.37005 5.22,5.37005 h 17.65 c 6.65,-0.1 9.9775,-2.67002 9.9775,-7.72507 z"
       id="path223"
       inkscape:connector-curvature="0"
       style="fill:#0d0f0f" />
    <path
       d="m 548.08321,347.12016 c 0,1.89502 -0.7325,3.59254 -2.1975,5.10755 -1.465,1.51002 -3.145,2.26252 -5.04,2.26252 -3.0175,0 -5.245,-1.41501 -6.6575,-4.25254 l -6.6675,-0.28 c -1.4175,0 -4.21,0.615 -8.3625,1.84252 -4.4425,1.22501 -6.995,2.22002 -7.66,2.97253 -1.035,1.13501 -1.8875,3.78503 -2.55,7.94508 -0.57,3.40003 -0.8475,5.90756 -0.8475,7.51507 0,2.55003 0.4,4.42005 1.2,5.60006 0.8025,1.18251 2.46,2.17252 4.96,2.97253 2.5,0.79501 4.04,1.25501 4.61,1.34751 0.3775,0 0.99,-0.045 1.8425,-0.1425 h 1.7025 c 1.2275,0 2.5025,0.19 3.83,0.56751 1.8875,0.5675 2.6925,1.31751 2.4125,2.26752 -1.3275,-0.185 -3.64,0.095 -6.945,0.85001 l 3.965,1.98752 c 0,1.13501 -1.6075,1.69751 -4.82,1.69751 -0.855,0 -2.015,-0.18 -3.475,-0.5625 -1.47,-0.38501 -2.44,-0.57251 -2.9075,-0.57251 h -1.8425 c -0.095,0.94751 -0.375,2.35753 -0.85,4.25254 -1.615,-0.0925 -3.4975,-1.04001 -5.675,-2.83252 -2.175,-1.80002 -3.545,-2.69753 -4.1075,-2.69753 -0.57,0 -1.3775,0.89751 -2.4125,2.69753 -1.0425,1.79251 -1.56,3.01753 -1.56,3.68753 -1.2275,-0.67 -2.265,-1.89502 -3.1225,-3.68753 -0.3775,-1.23502 -0.8025,-2.46503 -1.2725,-3.69754 -0.9475,0.0975 -2.6925,2.09002 -5.2475,5.96256 h -0.71 c -0.1925,-0.2825 -0.9,-2.26502 -2.13,-5.96256 -2.93,-0.93751 -5.67,-1.40752 -8.22,-1.40752 -1.2275,0 -3.1225,0.28001 -5.675,0.85251 l -3.9675,-0.2825 c 0.565,-0.57001 2.22,-1.65502 4.96,-3.26253 3.21,-1.89502 5.6725,-2.84253 7.3725,-2.84253 0.28,0 0.66,0.0525 1.135,0.1475 0.47,0.0975 0.8525,0.145 1.135,0.145 0.655,0 1.7225,-0.355 3.1875,-1.06751 1.465,-0.70751 2.3175,-1.34751 2.5475,-1.91502 0.245,-0.5725 0.3625,-2.03252 0.3625,-4.39754 0,-5.38256 -1.42,-9.4076 -4.2575,-12.04762 -2.4575,-2.36253 -6.52,-4.06254 -12.1925,-5.10755 -1.51,5.38505 -5.7675,8.08508 -12.7575,8.08508 -2.2725,0 -4.54,-1.37252 -6.8075,-4.11504 -2.2675,-2.74503 -3.4025,-5.24756 -3.4025,-7.51758 0,-3.49753 1.465,-6.37756 4.395,-8.64758 -2.36,-2.45253 -3.545,-4.95755 -3.545,-7.51508 0,-2.36002 0.73,-4.44004 2.1975,-6.24006 1.465,-1.79002 3.3825,-2.83253 5.7425,-3.12003 -0.185,-3.02003 0.8025,-5.10505 2.975,-6.23757 -1.0375,-1.03501 -1.555,-2.87502 -1.555,-5.52755 0,-3.11503 1.035,-5.71756 3.1175,-7.79758 2.075,-2.07502 4.6775,-3.12003 7.7925,-3.12003 3.4075,0 6.1975,1.18751 8.37,3.54503 2.745,-9.35509 8.6475,-14.03264 17.7225,-14.03264 4.7225,0 8.885,1.89002 12.475,5.67506 1.325,1.41252 1.9825,2.17002 1.9825,2.26252 -1.13,0 -0.5625,-0.215 1.7025,-0.635 2.2725,-0.42751 3.92,-0.64251 4.965,-0.64251 3.685,0 6.945,1.37502 9.7875,4.11504 2.455,2.46003 4.1575,5.57256 5.105,9.3551 0.6575,0.0975 1.6975,0.3775 3.1125,0.8525 2.08,1.04251 3.1225,2.83753 3.1225,5.38756 0,0.47 -0.38,1.37251 -1.135,2.69753 6.0475,3.40253 9.075,8.12758 9.075,14.17514 0,1.70251 -0.665,4.06754 -1.9825,7.09007 2.465,1.42251 3.695,3.50253 3.695,6.24506 z m -58.42,6.23756 v -1.84002 c 0,-2.17252 -1.06,-4.16004 -3.1875,-5.95506 -2.1275,-1.80001 -4.275,-2.69252 -6.45,-2.69252 -2.65,0 -5.105,0.615 -7.3725,1.83502 5.01,-0.27501 10.6775,2.60252 17.01,8.65258 z m -2.55,-17.57517 c -1.415,-1.61502 -2.645,-3.26504 -3.685,-4.96255 -3.9725,1.03501 -5.9575,2.22252 -5.9575,3.54003 1.1325,-0.0925 2.79,0.1175 4.96,0.64001 2.175,0.5225 3.74,0.78251 4.6825,0.78251 z m 8.655,-4.40255 v -6.23756 c -2.2725,-0.3725 -3.6475,-0.565 -4.115,-0.565 v 2.12752 l 4.115,4.67504 z m 18.43,-3.96504 c -1.135,-0.4725 -3.2625,-1.42001 -6.385,-2.83752 v 12.19262 c 4.445,-2.55503 6.57,-5.67006 6.385,-9.3551 z m 7.79,16.73017 -3.115,-3.82254 c -1.8875,1.32252 -3.8025,2.66503 -5.745,4.03754 -1.9375,1.36752 -3.6125,2.90503 -5.0275,4.61005 4.2475,-2.27752 8.885,-3.87754 13.8875,-4.82505 z"
       id="path225"
       inkscape:connector-curvature="0"
       style="fill:#0d0f0f" />
  </g>
</svg>
