<?xml version="1.0" encoding="UTF-8" ?>
<!DOCTYPE svg PUBLIC "-//W3C//DTD SVG 1.1//EN" "http://www.w3.org/Graphics/SVG/1.1/DTD/svg11.dtd">
<svg width="250pt" height="250pt" viewBox="0 0 250 250" version="1.1" xmlns="http://www.w3.org/2000/svg">
<g id="#9bd3aeff">
<path fill="#9bd3ae" opacity="1.00" d=" M 123.51 0.00 L 126.28 0.00 C 139.76 0.43 153.29 2.35 166.00 6.98 C 189.72 15.30 210.96 30.79 225.81 51.11 C 241.30 71.88 249.68 97.60 250.00 123.47 L 250.00 126.35 C 249.57 143.95 245.98 161.57 238.33 177.48 C 229.36 196.77 215.42 213.73 198.15 226.15 C 177.49 241.35 152.06 249.64 126.45 250.00 L 123.59 250.00 C 105.33 249.61 87.03 245.77 70.64 237.58 C 41.22 223.54 18.06 197.33 7.21 166.65 C 2.43 153.79 0.45 140.08 0.00 126.43 L 0.00 123.54 C 0.16 120.70 0.32 117.86 0.48 115.03 C 2.62 83.54 17.72 53.27 41.17 32.23 C 63.45 11.87 93.34 0.28 123.51 0.00 M 96.00 18.11 C 87.37 23.70 82.78 33.43 79.72 42.91 C 73.56 35.90 63.38 33.65 54.50 35.68 C 46.65 37.52 40.13 43.77 37.54 51.34 C 35.26 58.10 36.12 65.87 39.56 72.09 C 37.81 73.45 35.79 74.57 34.46 76.39 C 32.72 79.30 33.08 82.85 32.90 86.09 C 29.17 86.83 25.39 87.98 22.49 90.55 C 16.25 95.53 14.22 104.27 15.55 111.87 C 16.45 116.81 19.85 120.64 23.02 124.30 C 15.18 130.04 10.67 141.00 14.74 150.26 C 18.12 158.12 23.73 165.72 31.83 169.11 C 39.16 171.09 47.04 168.98 53.72 165.77 C 59.41 163.09 63.17 157.62 64.99 151.74 C 76.13 153.81 87.90 157.52 95.34 166.60 C 102.23 175.42 102.63 187.41 101.71 198.09 C 101.80 202.86 96.39 204.22 92.89 205.83 C 88.18 208.29 82.80 205.35 77.97 207.42 C 69.94 210.47 62.33 214.80 55.62 220.17 C 60.69 220.88 65.84 221.00 70.85 219.81 C 79.24 217.98 87.92 219.53 95.90 222.34 C 97.84 225.72 97.22 230.23 99.19 233.74 C 99.60 235.12 101.72 236.80 102.61 234.78 C 105.98 230.25 108.20 224.10 113.89 222.00 C 116.15 228.10 117.44 235.48 123.72 238.87 C 125.71 234.35 127.51 229.62 130.65 225.75 C 132.22 223.41 135.29 224.74 137.03 226.14 C 142.49 230.42 147.57 236.22 154.90 236.94 C 155.53 233.69 156.17 230.45 156.85 227.21 C 163.72 226.91 170.13 230.29 177.02 229.80 C 180.37 229.50 184.72 229.51 186.59 226.17 C 183.47 224.68 180.33 223.20 177.34 221.47 C 182.31 218.79 187.93 220.32 193.26 219.69 C 192.63 215.28 187.45 214.63 183.92 213.79 C 178.30 212.37 172.34 214.57 166.87 212.32 C 160.77 210.16 153.39 209.17 149.28 203.66 C 144.65 194.44 147.31 183.78 148.59 174.07 C 150.08 168.09 150.55 161.44 154.33 156.35 C 161.95 151.81 170.73 149.70 179.18 147.22 C 187.74 144.52 196.83 145.40 205.63 146.10 C 207.58 149.42 209.91 153.02 213.81 154.20 C 217.57 155.31 221.73 156.15 225.52 154.67 C 232.77 151.92 238.19 143.92 236.54 136.06 C 235.80 131.28 232.59 127.34 228.58 124.82 C 230.14 120.64 232.43 116.63 232.84 112.12 C 233.37 106.04 232.48 99.79 229.87 94.25 C 226.37 86.62 219.74 81.01 212.63 76.84 C 213.80 74.39 215.59 71.82 214.88 68.95 C 214.17 65.63 212.64 62.33 210.06 60.06 C 207.63 57.82 204.16 57.72 201.13 56.91 C 198.55 46.69 193.07 36.74 183.87 31.11 C 174.60 25.20 162.37 24.85 152.36 29.08 C 147.50 24.10 142.71 18.81 136.43 15.58 C 123.93 8.64 107.78 10.51 96.00 18.11 Z" />
<path fill="#9bd3ae" opacity="1.00" d=" M 109.43 88.01 C 112.57 88.15 115.69 88.53 118.75 89.27 C 118.75 93.97 118.75 98.68 118.75 103.38 C 115.96 100.46 112.80 97.85 110.40 94.58 C 108.99 92.68 109.58 90.20 109.43 88.01 Z" />
<path fill="#9bd3ae" opacity="1.00" d=" M 145.97 88.04 C 150.76 90.25 155.54 92.45 160.43 94.43 C 161.10 104.01 153.40 110.96 145.98 115.54 C 145.97 106.37 145.97 97.21 145.97 88.04 Z" />
<path fill="#9bd3ae" opacity="1.00" d=" M 77.26 110.03 C 79.10 104.29 85.98 103.70 90.89 102.12 C 93.34 106.10 96.22 109.78 99.21 113.36 C 91.71 113.41 84.81 109.50 77.26 110.03 Z" />
<path fill="#9bd3ae" opacity="1.00" d=" M 146.71 143.03 C 153.23 134.74 162.60 129.74 170.93 123.58 C 173.13 126.56 175.47 129.44 177.95 132.19 C 167.10 134.35 156.48 137.79 146.71 143.03 Z" />
<path fill="#9bd3ae" opacity="1.00" d=" M 66.62 133.41 C 74.48 129.96 84.18 127.41 92.20 131.77 C 97.06 134.30 101.46 138.13 103.69 143.23 C 105.16 146.27 104.97 149.72 105.03 153.00 C 98.23 146.98 91.13 141.14 83.00 136.98 C 77.94 134.42 72.27 133.34 66.62 133.41 Z" />
</g>
<g id="#000000ff">
<path fill="#000000" opacity="1.00" d=" M 96.00 18.11 C 107.78 10.51 123.93 8.64 136.43 15.58 C 142.71 18.81 147.50 24.10 152.36 29.08 C 162.37 24.85 174.60 25.20 183.87 31.11 C 193.07 36.74 198.55 46.69 201.13 56.91 C 204.16 57.72 207.63 57.82 210.06 60.06 C 212.64 62.33 214.17 65.63 214.88 68.95 C 215.59 71.82 213.80 74.39 212.63 76.84 C 219.74 81.01 226.37 86.62 229.87 94.25 C 232.48 99.79 233.37 106.04 232.84 112.12 C 232.43 116.63 230.14 120.64 228.58 124.82 C 232.59 127.34 235.80 131.28 236.54 136.06 C 238.19 143.92 232.77 151.92 225.52 154.67 C 221.73 156.15 217.57 155.31 213.81 154.20 C 209.91 153.02 207.58 149.42 205.63 146.10 C 196.83 145.40 187.74 144.52 179.18 147.22 C 170.73 149.70 161.95 151.81 154.33 156.35 C 150.55 161.44 150.08 168.09 148.59 174.07 C 147.31 183.78 144.65 194.44 149.28 203.66 C 153.39 209.17 160.77 210.16 166.87 212.32 C 172.34 214.57 178.30 212.37 183.92 213.79 C 187.45 214.63 192.63 215.28 193.26 219.69 C 187.93 220.32 182.31 218.79 177.34 221.47 C 180.33 223.20 183.47 224.68 186.59 226.17 C 184.72 229.51 180.37 229.50 177.02 229.80 C 170.13 230.29 163.72 226.91 156.85 227.21 C 156.17 230.45 155.53 233.69 154.90 236.94 C 147.57 236.22 142.49 230.42 137.03 226.14 C 135.29 224.74 132.22 223.41 130.65 225.75 C 127.51 229.62 125.71 234.35 123.72 238.87 C 117.44 235.48 116.15 228.10 113.89 222.00 C 108.20 224.10 105.98 230.25 102.61 234.78 C 101.72 236.80 99.60 235.12 99.19 233.74 C 97.22 230.23 97.84 225.72 95.90 222.34 C 87.92 219.53 79.24 217.98 70.85 219.81 C 65.84 221.00 60.69 220.88 55.62 220.17 C 62.33 214.80 69.94 210.47 77.97 207.42 C 82.80 205.35 88.18 208.29 92.89 205.83 C 96.39 204.22 101.80 202.86 101.71 198.09 C 102.63 187.41 102.23 175.42 95.34 166.60 C 87.90 157.52 76.13 153.81 64.99 151.74 C 63.17 157.62 59.41 163.09 53.72 165.77 C 47.04 168.98 39.16 171.09 31.83 169.11 C 23.73 165.72 18.12 158.12 14.74 150.26 C 10.67 141.00 15.18 130.04 23.02 124.30 C 19.85 120.64 16.45 116.81 15.55 111.87 C 14.22 104.27 16.25 95.53 22.49 90.55 C 25.39 87.98 29.17 86.83 32.90 86.09 C 33.08 82.85 32.72 79.30 34.46 76.39 C 35.79 74.57 37.81 73.45 39.56 72.09 C 36.12 65.87 35.26 58.10 37.54 51.34 C 40.13 43.77 46.65 37.52 54.50 35.68 C 63.38 33.65 73.56 35.90 79.72 42.91 C 82.78 33.43 87.37 23.70 96.00 18.11 M 109.43 88.01 C 109.58 90.20 108.99 92.68 110.40 94.58 C 112.80 97.85 115.96 100.46 118.75 103.38 C 118.75 98.68 118.75 93.97 118.75 89.27 C 115.69 88.53 112.57 88.15 109.43 88.01 M 145.97 88.04 C 145.97 97.21 145.97 106.37 145.98 115.54 C 153.40 110.96 161.10 104.01 160.43 94.43 C 155.54 92.45 150.76 90.25 145.97 88.04 M 77.26 110.03 C 84.81 109.50 91.71 113.41 99.21 113.36 C 96.22 109.78 93.34 106.10 90.89 102.12 C 85.98 103.70 79.10 104.29 77.26 110.03 M 146.71 143.03 C 156.48 137.79 167.10 134.35 177.95 132.19 C 175.47 129.44 173.13 126.56 170.93 123.58 C 162.60 129.74 153.23 134.74 146.71 143.03 M 66.62 133.41 C 72.27 133.34 77.94 134.42 83.00 136.98 C 91.13 141.14 98.23 146.98 105.03 153.00 C 104.97 149.72 105.16 146.27 103.69 143.23 C 101.46 138.13 97.06 134.30 92.20 131.77 C 84.18 127.41 74.48 129.96 66.62 133.41 Z" />
</g>
</svg>
