<?xml version="1.0" encoding="UTF-8" ?>
<!DOCTYPE svg PUBLIC "-//W3C//DTD SVG 1.1//EN" "http://www.w3.org/Graphics/SVG/1.1/DTD/svg11.dtd">
<svg width="250pt" height="250pt" viewBox="0 0 250 250" version="1.1" xmlns="http://www.w3.org/2000/svg">
<g id="#ccc2c0ff">
<path fill="#ccc2c0" opacity="1.00" d=" M 73.83 10.99 C 96.59 0.55 122.55 -2.13 147.13 2.09 C 177.85 7.55 206.20 25.11 224.99 50.00 C 240.73 70.77 249.67 96.56 250.00 122.64 L 250.00 126.56 C 249.87 152.66 241.03 178.48 225.48 199.40 C 203.81 228.92 168.70 248.18 132.07 250.00 L 117.65 250.00 C 86.84 248.43 56.90 234.69 35.52 212.46 C 13.56 189.90 0.34 158.95 0.00 127.40 L 0.00 123.47 C 0.22 104.17 4.82 84.89 13.82 67.79 C 26.59 42.75 48.16 22.40 73.83 10.99 M 81.94 24.08 C 77.64 25.83 73.15 27.55 69.61 30.64 C 68.35 31.71 68.06 33.43 68.24 34.99 C 68.58 40.32 69.61 45.64 71.52 50.64 C 73.28 55.16 77.15 58.37 80.98 61.12 C 86.27 64.82 91.81 68.15 96.96 72.06 C 89.26 69.67 82.06 65.71 74.07 64.30 C 71.40 63.76 68.63 63.71 66.01 62.96 C 64.67 62.11 64.50 60.36 63.99 58.99 C 62.23 52.42 61.27 45.67 59.54 39.09 C 51.80 45.48 44.70 52.71 38.97 60.98 C 27.07 77.78 20.73 98.44 21.17 119.03 C 21.33 125.40 21.63 131.96 24.15 137.91 C 26.77 144.35 32.28 149.76 39.12 151.46 C 48.02 153.66 57.06 155.20 66.01 157.11 C 69.22 157.94 73.64 156.96 75.50 160.41 C 77.83 163.83 81.47 167.81 79.22 172.18 C 77.81 180.50 77.99 189.04 77.18 197.45 C 76.86 206.80 74.58 216.73 78.52 225.64 C 81.25 230.76 87.90 230.73 92.95 230.81 C 93.54 227.19 94.05 223.56 94.47 219.92 C 95.02 215.84 93.45 211.89 93.29 207.85 C 93.89 203.60 95.57 199.61 96.99 195.59 C 97.63 195.61 98.91 195.64 99.55 195.65 C 102.86 205.94 104.86 216.58 107.54 227.03 C 111.17 227.36 114.82 227.33 118.45 227.03 C 119.69 217.03 121.01 207.03 122.22 197.03 C 124.63 196.87 127.17 196.49 129.38 197.75 C 129.34 205.49 129.20 213.23 129.42 220.97 C 129.79 221.08 130.53 221.30 130.90 221.41 C 136.07 218.24 141.22 214.90 145.94 211.08 C 146.91 206.64 144.41 202.21 145.68 197.83 C 147.38 197.86 149.09 197.88 150.80 197.89 C 152.17 201.92 153.88 205.90 154.49 210.14 C 154.32 214.48 152.60 218.71 153.20 223.08 C 153.64 226.49 154.72 229.76 155.57 233.08 C 160.25 232.03 164.93 231.01 169.66 230.22 C 171.06 222.95 172.56 215.50 171.30 208.09 C 169.48 195.13 170.04 182.06 170.00 169.02 C 169.84 165.63 170.99 161.80 174.24 160.19 C 180.93 156.68 188.66 156.34 195.96 155.03 C 205.76 153.77 216.38 150.96 222.76 142.82 C 229.16 135.12 229.16 124.48 228.58 115.01 C 229.02 108.11 227.16 101.41 225.36 94.83 C 221.77 82.53 216.57 70.57 208.80 60.32 C 204.76 55.06 201.19 49.09 195.66 45.27 C 184.07 49.76 173.08 57.01 160.36 57.84 C 170.11 52.02 180.50 46.68 187.92 37.83 C 182.14 33.18 176.00 28.92 169.25 25.80 C 157.92 20.40 145.25 18.89 132.90 17.74 C 115.77 16.74 98.02 17.55 81.94 24.08 Z" />
<path fill="#ccc2c0" opacity="1.00" d=" M 62.50 89.76 C 70.44 87.80 78.83 90.09 85.55 94.47 C 94.64 100.36 101.77 109.42 105.08 119.75 C 106.22 124.17 107.30 129.45 104.55 133.50 C 101.09 137.74 95.23 138.57 90.08 138.65 C 80.05 138.61 70.02 138.54 60.01 137.96 C 53.63 137.60 46.51 137.00 41.63 132.38 C 38.17 129.34 37.51 124.38 37.88 120.03 C 39.18 106.35 49.12 93.48 62.50 89.76 Z" />
<path fill="#ccc2c0" opacity="1.00" d=" M 175.20 90.20 C 195.40 84.93 215.14 105.17 213.34 124.96 C 212.95 129.31 210.17 133.27 206.32 135.28 C 200.73 138.32 194.18 138.38 187.99 138.39 C 176.97 138.39 165.95 138.72 154.93 138.56 C 150.06 138.56 145.85 134.54 145.23 129.78 C 144.32 122.40 147.11 115.11 151.02 108.98 C 156.64 100.28 165.06 92.94 175.20 90.20 Z" />
<path fill="#ccc2c0" opacity="1.00" d=" M 107.58 166.02 C 107.95 153.41 110.53 139.97 118.78 130.01 C 119.77 131.14 120.20 132.47 120.05 133.97 C 119.80 146.75 121.64 159.45 122.28 172.20 C 123.60 172.29 124.93 172.36 126.26 172.41 C 126.45 158.44 128.59 144.58 129.66 130.66 C 133.52 137.30 134.65 145.06 138.14 151.87 C 139.25 154.55 141.53 156.92 141.30 159.99 C 141.14 166.04 141.33 172.11 140.80 178.15 C 140.66 180.55 139.79 182.82 138.24 184.67 C 129.73 179.64 118.78 179.08 109.96 183.64 C 106.86 178.30 107.77 171.93 107.58 166.02 Z" />
</g>
<g id="#000000ff">
<path fill="#000000" opacity="1.00" d=" M 81.94 24.08 C 98.02 17.55 115.77 16.74 132.90 17.74 C 145.25 18.89 157.92 20.40 169.25 25.80 C 176.00 28.92 182.14 33.18 187.92 37.83 C 180.50 46.68 170.11 52.02 160.36 57.84 C 173.08 57.01 184.07 49.76 195.66 45.27 C 201.19 49.09 204.76 55.06 208.80 60.32 C 216.57 70.57 221.77 82.53 225.36 94.83 C 227.16 101.41 229.02 108.11 228.58 115.01 C 229.16 124.48 229.16 135.12 222.76 142.82 C 216.38 150.96 205.76 153.77 195.96 155.03 C 188.66 156.34 180.93 156.68 174.24 160.19 C 170.99 161.80 169.84 165.63 170.00 169.02 C 170.04 182.06 169.48 195.13 171.30 208.09 C 172.56 215.50 171.06 222.95 169.66 230.22 C 164.93 231.01 160.25 232.03 155.57 233.08 C 154.72 229.76 153.64 226.49 153.20 223.08 C 152.60 218.71 154.32 214.48 154.49 210.14 C 153.88 205.90 152.17 201.92 150.80 197.89 C 149.09 197.88 147.38 197.86 145.68 197.83 C 144.41 202.21 146.91 206.64 145.94 211.08 C 141.22 214.90 136.07 218.24 130.90 221.41 C 130.53 221.30 129.79 221.08 129.42 220.97 C 129.20 213.23 129.34 205.49 129.38 197.75 C 127.17 196.49 124.63 196.87 122.22 197.03 C 121.01 207.03 119.69 217.03 118.45 227.03 C 114.82 227.33 111.17 227.36 107.54 227.03 C 104.86 216.58 102.86 205.94 99.55 195.65 C 98.91 195.64 97.63 195.61 96.99 195.59 C 95.57 199.61 93.89 203.60 93.29 207.85 C 93.45 211.89 95.02 215.84 94.47 219.92 C 94.05 223.56 93.54 227.19 92.95 230.81 C 87.90 230.73 81.25 230.76 78.52 225.64 C 74.58 216.73 76.86 206.80 77.18 197.45 C 77.99 189.04 77.81 180.50 79.22 172.18 C 81.47 167.81 77.83 163.83 75.50 160.41 C 73.64 156.96 69.22 157.94 66.01 157.11 C 57.06 155.20 48.02 153.66 39.12 151.46 C 32.28 149.76 26.77 144.35 24.15 137.91 C 21.63 131.96 21.33 125.40 21.17 119.03 C 20.73 98.44 27.07 77.78 38.97 60.98 C 44.70 52.71 51.80 45.48 59.54 39.09 C 61.27 45.67 62.23 52.42 63.99 58.99 C 64.50 60.36 64.67 62.11 66.01 62.96 C 68.63 63.71 71.40 63.76 74.07 64.30 C 82.06 65.71 89.26 69.67 96.96 72.06 C 91.81 68.15 86.27 64.82 80.98 61.12 C 77.15 58.37 73.28 55.16 71.52 50.64 C 69.61 45.64 68.58 40.32 68.24 34.99 C 68.06 33.43 68.35 31.71 69.61 30.64 C 73.15 27.55 77.64 25.83 81.94 24.08 M 62.50 89.76 C 49.12 93.48 39.18 106.35 37.88 120.03 C 37.51 124.38 38.17 129.34 41.63 132.38 C 46.51 137.00 53.63 137.60 60.01 137.96 C 70.02 138.54 80.05 138.61 90.08 138.65 C 95.23 138.57 101.09 137.74 104.55 133.50 C 107.30 129.45 106.22 124.17 105.08 119.75 C 101.77 109.42 94.64 100.36 85.55 94.47 C 78.83 90.09 70.44 87.80 62.50 89.76 M 175.20 90.20 C 165.06 92.94 156.64 100.28 151.02 108.98 C 147.11 115.11 144.32 122.40 145.23 129.78 C 145.85 134.54 150.06 138.56 154.93 138.56 C 165.95 138.72 176.97 138.39 187.99 138.39 C 194.18 138.38 200.73 138.32 206.32 135.28 C 210.17 133.27 212.95 129.31 213.34 124.96 C 215.14 105.17 195.40 84.93 175.20 90.20 M 107.58 166.02 C 107.77 171.93 106.86 178.30 109.96 183.64 C 118.78 179.08 129.73 179.64 138.24 184.67 C 139.79 182.82 140.66 180.55 140.80 178.15 C 141.33 172.11 141.14 166.04 141.30 159.99 C 141.53 156.92 139.25 154.55 138.14 151.87 C 134.65 145.06 133.52 137.30 129.66 130.66 C 128.59 144.58 126.45 158.44 126.26 172.41 C 124.93 172.36 123.60 172.29 122.28 172.20 C 121.64 159.45 119.80 146.75 120.05 133.97 C 120.20 132.47 119.77 131.14 118.78 130.01 C 110.53 139.97 107.95 153.41 107.58 166.02 Z" />
</g>
</svg>
