<?xml version="1.0" encoding="UTF-8" ?>
<!DOCTYPE svg PUBLIC "-//W3C//DTD SVG 1.1//EN" "http://www.w3.org/Graphics/SVG/1.1/DTD/svg11.dtd">
<svg width="250pt" height="250pt" viewBox="0 0 250 250" version="1.1" xmlns="http://www.w3.org/2000/svg">
<g id="#aae0faff">
<path fill="#aae0fa" opacity="1.00" d=" M 122.64 0.00 L 125.63 0.00 C 155.60 0.13 185.28 11.48 207.68 31.38 C 228.49 49.46 242.90 74.76 247.88 101.87 C 249.14 108.74 249.61 115.69 250.00 122.65 L 250.00 125.75 C 249.62 139.41 247.72 153.13 243.02 166.01 C 233.47 193.44 214.05 217.33 189.05 232.15 C 170.10 243.83 147.90 249.72 125.70 250.00 L 122.83 250.00 C 109.14 249.49 95.38 247.47 82.53 242.59 C 51.92 231.72 26.18 208.17 12.32 178.83 C 4.12 162.38 0.34 144.00 0.00 125.68 L 0.00 122.86 C 0.38 115.83 0.84 108.81 2.12 101.88 C 7.12 74.75 21.50 49.44 42.26 31.26 C 64.20 11.68 93.25 0.51 122.64 0.00 M 91.81 81.92 C 86.57 88.88 82.68 96.70 78.23 104.16 C 73.67 112.68 69.76 121.57 66.74 130.75 C 62.01 145.01 61.17 160.54 64.73 175.16 C 67.53 190.27 75.67 204.64 88.11 213.86 C 97.79 221.29 109.91 225.11 122.05 225.36 C 138.51 226.41 155.23 220.49 167.40 209.36 C 187.56 191.29 193.84 158.97 180.57 135.13 C 170.79 118.06 158.12 102.86 148.24 85.84 C 141.85 75.77 139.10 63.79 139.25 51.94 C 138.62 42.54 141.89 33.56 143.72 24.46 C 124.18 41.41 106.27 60.41 91.81 81.92 Z" />
<path fill="#aae0fa" opacity="1.00" d=" M 158.14 124.61 C 163.69 128.01 166.45 134.05 169.49 139.51 C 172.48 145.53 173.90 152.27 174.02 158.97 C 173.81 164.98 170.93 172.66 163.98 173.18 C 156.74 174.51 149.34 166.99 151.72 159.82 C 154.52 150.71 157.70 141.62 158.77 132.10 C 159.07 129.58 158.64 127.07 158.14 124.61 Z" />
</g>
<g id="#000000ff">
<path fill="#000000" opacity="1.00" d=" M 91.81 81.92 C 106.27 60.41 124.18 41.41 143.72 24.46 C 141.89 33.56 138.62 42.54 139.25 51.94 C 139.10 63.79 141.85 75.77 148.24 85.84 C 158.12 102.86 170.79 118.06 180.57 135.13 C 193.84 158.97 187.56 191.29 167.40 209.36 C 155.23 220.49 138.51 226.41 122.05 225.36 C 109.91 225.11 97.79 221.29 88.11 213.86 C 75.67 204.64 67.53 190.27 64.73 175.16 C 61.17 160.54 62.01 145.01 66.74 130.75 C 69.76 121.57 73.67 112.68 78.23 104.16 C 82.68 96.70 86.57 88.88 91.81 81.92 M 158.14 124.61 C 158.64 127.07 159.07 129.58 158.77 132.10 C 157.70 141.62 154.52 150.71 151.72 159.82 C 149.34 166.99 156.74 174.51 163.98 173.18 C 170.93 172.66 173.81 164.98 174.02 158.97 C 173.90 152.27 172.48 145.53 169.49 139.51 C 166.45 134.05 163.69 128.01 158.14 124.61 Z" />
</g>
</svg>
