<?xml version="1.0" encoding="utf-8"?>
<!-- Generator: Adobe Illustrator 16.0.0, SVG Export Plug-In . SVG Version: 6.00 Build 0)  -->
<!DOCTYPE svg PUBLIC "-//W3C//DTD SVG 1.1//EN" "http://www.w3.org/Graphics/SVG/1.1/DTD/svg11.dtd">
<svg version="1.1" id="Layer_1" xmlns="http://www.w3.org/2000/svg" xmlns:xlink="http://www.w3.org/1999/xlink" x="0px" y="0px"
	 width="55.487px" height="98px" viewBox="0 0 55.487 98" enable-background="new 0 0 55.487 98" xml:space="preserve">
<path fill="#0D1013" d="M55.305,48.925c0.059-5.344-1.639-10.739-4.967-14.928c-1.607-1.771-2.93-3.787-4.633-5.461
	c-3.754-3.726-9.375-3.974-13.896-6.321c-0.264-2.358-1.125-4.715-0.604-7.093c0.16-0.791,0.393-1.593-0.029-2.348
	c-1.186-2.733-0.166-5.699-0.377-8.548C30.641,2.739,30.743,0.919,29.325,0c-0.33,3.097-1.469,5.979-2.391,8.918
	c-0.426,2.29-0.426,4.676-1.414,6.836c0.627,2.188-0.613,4.03-1.955,5.646c-2.967,1.519-6.496,1.88-9.078,4.11
	c-1.84,1.561-3.828,2.931-5.887,4.202c-1.545,1.933-3.256,3.797-3.945,6.24C1.893,39.288,1.567,43.764,0,47.67
	c-0.029,5.799,1.146,12.043,4.85,16.692c2.65,2.187,4.502,5.131,7.148,7.319c2.541,1.516,5.252,2.762,7.875,4.127
	c1.709,0.399,3.475,0.595,5.176,1.06c1.379,7.109,2.322,14.389,5.092,21.132c0.918-2.768,0.807-5.735,1.6-8.532
	c1.119-4.135-1.176-8.44,0.117-12.5c1.938-1.733,5.17-0.608,7.32-2.095c4.092-2.523,8.422-4.98,11.391-8.839
	c1.105-2.22,3.426-3.877,3.426-6.54C54.014,55.906,56.104,52.549,55.305,48.925z M24.932,70.855
	c-2.965-0.72-5.727-2.138-8.213-3.871c-2.676-1.783-3.674-5.11-6.314-6.933c-2.473-2.951-1.938-6.982-2.951-10.476
	c0.406-2.438,0.885-4.856,1.139-7.325c1.205-1.956,3.066-3.515,3.582-5.87c1.768-2.532,4.459-4.284,6.619-6.48
	c1.572-1.813,4.074-1.048,6.139-1.119c-0.205,2-0.367,4.069,0.133,6.041c0.244,1.212,0.791,2.407,0.604,3.676
	c-0.414,2.699,0.598,5.407-0.117,8.075c-1.443,5.577,0.131,11.209,0.268,16.832C25.616,65.894,25.499,68.404,24.932,70.855z
	 M47.409,60.285c-1.963,1.397-3.637,3.111-5.35,4.785c-2.979,2.06-5.924,4.24-9.469,5.27c0.32-2.53,0.631-5.131-0.174-7.608
	c-1.979-5.593,0.445-11.445,0.855-17.101c-0.361-3.364-0.016-6.952-1.559-10.049c-0.201-2.327,0.805-4.574,1.486-6.764
	c2.342,0.935,4.547,2.197,6.496,3.821c2.354,1.764,5.961,2.908,6.488,6.198c0.268,2.161,2.633,3.467,2.564,5.678
	C48.598,49.771,49.323,55.267,47.409,60.285z"/>
</svg>
