<?xml version="1.0" encoding="UTF-8" ?>
<!DOCTYPE svg PUBLIC "-//W3C//DTD SVG 1.1//EN" "http://www.w3.org/Graphics/SVG/1.1/DTD/svg11.dtd">
<svg width="250pt" height="250pt" viewBox="0 0 250 250" version="1.1" xmlns="http://www.w3.org/2000/svg">
<g id="#faaa8fff">
<path fill="#faaa8f" opacity="1.00" d=" M 73.26 11.25 C 97.19 0.13 124.72 -2.43 150.50 2.73 C 178.99 8.67 205.19 24.95 223.25 47.75 C 239.99 68.84 249.61 95.43 250.00 122.38 L 250.00 127.59 C 249.61 158.34 237.02 188.56 215.89 210.85 C 194.33 233.83 163.88 248.28 132.37 250.00 L 117.12 250.00 C 85.56 248.19 54.97 233.72 33.59 210.43 C 12.82 188.14 0.41 158.16 0.00 127.64 L 0.00 123.23 C 0.26 104.98 4.37 86.75 12.52 70.38 C 25.04 44.38 46.94 23.09 73.26 11.25 M 78.51 21.28 C 83.93 22.14 89.46 21.77 94.87 22.70 C 107.23 24.46 120.01 25.89 131.35 31.47 C 134.17 32.76 137.27 35.56 136.11 39.01 C 135.43 42.28 131.91 43.46 129.05 44.13 C 121.28 46.27 113.17 45.40 105.24 46.15 C 108.49 48.06 112.10 49.17 115.61 50.49 C 123.63 53.45 133.04 52.93 140.37 48.37 C 144.81 45.62 149.47 42.43 154.96 42.78 C 160.83 42.56 166.14 46.08 169.25 50.89 C 174.30 58.06 177.57 67.29 175.50 76.06 C 175.16 78.41 172.41 80.24 170.37 78.45 C 165.25 73.94 161.79 67.91 158.09 62.26 C 155.98 72.08 160.99 81.62 167.32 88.77 C 174.62 96.80 184.60 103.00 195.59 103.92 C 194.16 113.00 192.06 122.23 187.24 130.17 C 185.73 132.76 183.55 134.94 180.83 136.27 C 178.64 132.18 176.54 127.67 177.14 122.90 C 177.47 116.92 181.34 111.78 181.23 105.71 C 175.30 109.33 171.63 115.68 169.43 122.09 C 168.07 129.26 167.39 136.63 167.96 143.93 C 168.56 152.16 164.46 160.02 159.07 165.98 C 155.31 169.86 150.68 173.82 144.99 173.93 C 140.00 173.87 134.65 172.60 131.01 169.00 C 128.10 166.05 128.75 161.23 131.05 158.13 C 136.00 150.85 145.03 148.30 150.96 142.06 C 157.36 135.33 161.47 126.59 163.28 117.53 C 164.11 112.76 164.58 107.94 165.16 103.14 C 160.27 104.74 156.39 108.27 152.01 110.83 C 142.34 116.87 131.70 122.57 120.02 122.72 C 115.56 122.98 111.39 121.24 107.24 119.90 C 89.25 115.16 69.06 120.78 56.07 134.11 C 44.15 146.00 38.33 163.53 40.49 180.20 C 42.37 194.32 49.02 207.81 59.24 217.76 C 67.47 225.77 78.34 231.39 89.97 231.81 C 109.04 232.05 128.21 231.89 147.08 228.83 C 160.17 226.70 173.46 223.76 184.98 216.88 C 173.96 216.78 162.94 216.38 151.93 215.97 C 148.79 216.06 145.80 213.83 144.58 211.02 C 143.76 208.38 146.23 206.34 148.36 205.39 C 160.13 200.00 173.34 200.64 185.94 199.58 C 196.46 198.56 207.06 195.20 215.22 188.26 C 221.77 182.91 226.52 175.68 229.86 167.97 C 232.02 163.66 234.08 159.11 233.95 154.16 C 227.82 160.78 220.69 166.77 212.20 170.09 C 204.56 173.03 196.78 175.62 188.89 177.80 C 199.70 160.91 217.56 149.60 226.55 131.40 C 232.00 121.21 232.72 109.23 231.59 97.93 C 229.40 77.58 218.38 59.48 205.97 43.71 C 210.54 55.81 216.51 67.83 216.88 81.01 C 217.09 84.38 215.95 87.74 213.55 90.14 C 209.31 75.05 202.78 60.40 192.81 48.19 C 181.45 33.96 165.22 23.88 147.53 19.68 C 124.91 14.28 100.90 15.29 78.51 21.28 M 65.40 32.53 C 53.69 39.96 44.56 51.91 41.26 65.45 C 47.61 61.56 53.04 55.97 60.16 53.50 C 61.29 57.93 60.65 62.96 63.21 66.91 C 66.95 60.95 69.06 53.15 75.75 49.71 C 80.26 48.38 85.89 49.28 89.36 45.43 C 92.47 41.16 90.62 34.44 86.19 31.77 C 79.96 27.56 71.47 28.47 65.40 32.53 M 132.68 59.66 C 129.13 61.28 127.41 65.08 124.53 67.49 C 120.63 69.09 117.14 65.66 114.00 63.83 C 110.00 61.31 104.90 57.64 100.17 60.54 C 110.24 64.14 113.85 75.12 121.80 81.29 C 128.53 85.05 137.02 82.13 142.80 77.84 C 148.55 73.60 147.18 64.21 141.61 60.47 C 138.95 58.91 135.57 58.70 132.68 59.66 Z" />
</g>
<g id="#000000ff">
<path fill="#000000" opacity="1.00" d=" M 78.51 21.28 C 100.90 15.29 124.91 14.28 147.53 19.68 C 165.22 23.88 181.45 33.96 192.81 48.19 C 202.78 60.40 209.31 75.05 213.55 90.14 C 215.95 87.74 217.09 84.38 216.88 81.01 C 216.51 67.83 210.54 55.81 205.97 43.71 C 218.38 59.48 229.40 77.58 231.59 97.93 C 232.72 109.23 232.00 121.21 226.55 131.40 C 217.56 149.60 199.70 160.91 188.89 177.80 C 196.78 175.62 204.56 173.03 212.20 170.09 C 220.69 166.77 227.82 160.78 233.95 154.16 C 234.08 159.11 232.02 163.66 229.86 167.97 C 226.52 175.68 221.77 182.91 215.22 188.26 C 207.06 195.20 196.46 198.56 185.94 199.58 C 173.34 200.64 160.13 200.00 148.36 205.39 C 146.23 206.34 143.76 208.38 144.58 211.02 C 145.80 213.83 148.79 216.06 151.93 215.97 C 162.94 216.38 173.96 216.78 184.98 216.88 C 173.46 223.76 160.17 226.70 147.08 228.83 C 128.21 231.89 109.04 232.05 89.97 231.81 C 78.34 231.39 67.47 225.77 59.24 217.76 C 49.02 207.81 42.37 194.32 40.49 180.20 C 38.33 163.53 44.15 146.00 56.07 134.11 C 69.06 120.78 89.25 115.16 107.24 119.90 C 111.39 121.24 115.56 122.98 120.02 122.72 C 131.70 122.57 142.34 116.87 152.01 110.83 C 156.39 108.27 160.27 104.74 165.16 103.14 C 164.58 107.94 164.11 112.76 163.28 117.53 C 161.47 126.59 157.36 135.33 150.96 142.06 C 145.03 148.30 136.00 150.85 131.05 158.13 C 128.75 161.23 128.10 166.05 131.01 169.00 C 134.65 172.60 140.00 173.87 144.99 173.93 C 150.68 173.82 155.31 169.86 159.07 165.98 C 164.46 160.02 168.56 152.16 167.96 143.93 C 167.39 136.63 168.07 129.26 169.43 122.09 C 171.63 115.68 175.30 109.33 181.23 105.71 C 181.34 111.78 177.47 116.92 177.14 122.90 C 176.54 127.67 178.64 132.18 180.83 136.27 C 183.55 134.94 185.73 132.76 187.24 130.17 C 192.06 122.23 194.16 113.00 195.59 103.92 C 184.60 103.00 174.62 96.80 167.32 88.77 C 160.99 81.62 155.98 72.08 158.09 62.26 C 161.79 67.91 165.25 73.94 170.37 78.45 C 172.41 80.24 175.16 78.41 175.50 76.06 C 177.57 67.29 174.30 58.06 169.25 50.89 C 166.14 46.08 160.83 42.56 154.96 42.78 C 149.47 42.43 144.81 45.62 140.37 48.37 C 133.04 52.93 123.63 53.45 115.61 50.49 C 112.10 49.17 108.49 48.06 105.24 46.15 C 113.17 45.40 121.28 46.27 129.05 44.13 C 131.91 43.46 135.43 42.28 136.11 39.01 C 137.27 35.56 134.17 32.76 131.35 31.47 C 120.01 25.89 107.23 24.46 94.87 22.70 C 89.46 21.77 83.93 22.14 78.51 21.28 Z" />
<path fill="#000000" opacity="1.00" d=" M 65.40 32.53 C 71.47 28.47 79.96 27.56 86.19 31.77 C 90.62 34.44 92.47 41.16 89.36 45.43 C 85.89 49.28 80.26 48.38 75.75 49.71 C 69.06 53.15 66.95 60.95 63.21 66.91 C 60.65 62.96 61.29 57.93 60.16 53.50 C 53.04 55.97 47.61 61.56 41.26 65.45 C 44.56 51.91 53.69 39.96 65.40 32.53 Z" />
<path fill="#000000" opacity="1.00" d=" M 132.68 59.66 C 135.57 58.70 138.95 58.91 141.61 60.47 C 147.18 64.21 148.55 73.60 142.80 77.84 C 137.02 82.13 128.53 85.05 121.80 81.29 C 113.85 75.12 110.24 64.14 100.17 60.54 C 104.90 57.64 110.00 61.31 114.00 63.83 C 117.14 65.66 120.63 69.09 124.53 67.49 C 127.41 65.08 129.13 61.28 132.68 59.66 Z" />
</g>
</svg>
